<!--?xml version="1.0" standalone="no"?-->
              <svg id="sw-js-blob-svg" viewBox="0 0 100 100" xmlns="http://www.w3.org/2000/svg" version="1.1">
                    <defs> 
                        <linearGradient id="sw-gradient" x1="0" x2="1" y1="1" y2="0">
                            <stop id="stop1" stop-color="rgba(0, 51, 85, 1)" offset="0%"></stop>
                            <stop id="stop2" stop-color="rgba(3, 32, 48, 1)" offset="100%"></stop>
                        </linearGradient>
                    </defs>
                <path fill="url(#sw-gradient)" d="M22.8,-31.5C30.2,-26,37.4,-20.2,40.8,-12.6C44.2,-5,43.8,4.6,41,13.4C38.3,22.3,33.2,30.5,26,33.3C18.8,36.1,9.4,33.5,1.3,31.7C-6.8,29.9,-13.6,29,-18.2,25.4C-22.9,21.7,-25.3,15.4,-26.6,9.2C-27.8,3,-27.9,-3.1,-27.3,-10.1C-26.7,-17.1,-25.3,-25,-20.6,-31.5C-16,-37.9,-8,-42.9,-0.1,-42.7C7.7,-42.5,15.4,-37.1,22.8,-31.5Z" width="100%" height="100%" transform="translate(50 50)" style="transition: 0.3s;" stroke-width="0" stroke="url(#sw-gradient)"></path>
              </svg>